<svg width="2243" height="1437" viewBox="0 0 2243 1437" fill="none" xmlns="http://www.w3.org/2000/svg">
<path d="M382.983 1127.78C411.933 1078.15 700.056 695.68 840.498 510.649L1184.93 341.343L1524.19 536.497L1830.5 991.933L1899.5 1169.5L1777 1073.5L1694 1010.81L1611.5 969.5L1530.5 945L1447 940L1472.5 868L1375.5 915V660L1283.5 843.5L1261 758L1165 921.637H1105.44L697.686 1010.81L382.983 1127.78Z" fill="black"/>
<path d="M228.54 1278.99H85.082L304.146 729.716L625.958 379.472L1115.78 157.176L1505.45 316.143L1688.32 586.904L1787.84 630.2L1911.26 936.502L2157.47 1258.96L1935.17 1167.2L1863.44 976.567L1533.23 475.11L1175.23 296.111L817.235 475.11L410.124 995.307L228.54 1278.99Z" fill="black"/>
<path d="M1270.38 1183.74L1476.89 1152.83L1414.43 1130.57L1503.18 961.059L1433.58 1006.95L1406.92 1016.58L1382.94 1025.12L1431.19 910.849L1353.7 949.656L1350.3 756.268L1276.55 899.052L1257.17 830.174L1164.94 994.233L1130.59 977.354L1140.21 1072.06L1124.84 1052.74L1073.38 1039.09L1137.36 1109.43L1051.63 1120.39L1256.66 1185.28L1165.17 1118.68L1142.6 1006.79L1180.82 1015.53L1254.37 866.901L1269.08 928.943L1322.9 835.187L1333.05 982.429L1399.44 953.146L1355.3 1047.64L1421.8 1033.92L1358.97 1143.84L1270.38 1183.74Z" fill="black"/>
<path d="M1342.75 582.653L1367.57 558.36L1353.64 615.63L1342.75 582.653Z" fill="#FEE227"/>
<path d="M1318.43 517.527L1293.7 495.018L1313.36 550.583L1318.43 517.527Z" fill="#FEE227"/>
<path d="M1429.84 518.605L1448.72 506.362L1438.97 539.172L1429.84 518.605Z" fill="#FEE227"/>
<path d="M1196.12 772.54L1173.99 737.265L1176.39 809.211L1196.12 772.54Z" fill="#FEE227"/>
<path d="M1242.55 676.669L1269 622.015L1272.58 729.439L1242.55 676.669Z" fill="#FEE227"/>
<path d="M1477.98 653.164L1461.44 628.056L1455.68 673.334L1477.98 653.164Z" fill="#FEE227"/>
<path d="M1393.49 705.021L1416.53 678.459L1409.3 736.432L1393.49 705.021Z" fill="#FEE227"/>
<path d="M1434.72 844.58L1434.15 809.422L1402.42 858.472L1434.72 844.58Z" fill="#FEE227"/>
<path d="M1507.9 828.304L1481.78 836.871L1498.97 802.308L1507.9 828.304Z" fill="#FEE227"/>
</svg>
